<svg width="90" height="90" viewBox="0 0 90 90" fill="none" xmlns="http://www.w3.org/2000/svg">
<path d="M45.0003 1.82141C45.6396 1.82141 46.2528 2.0754 46.7049 2.52749C47.157 2.97959 47.411 3.59276 47.411 4.23213V6.64284H61.8753C64.2196 6.64284 66.4679 7.57412 68.1256 9.23181C69.7833 10.8895 70.7146 13.1378 70.7146 15.4821V33.1607C70.7146 35.505 69.7833 37.7533 68.1256 39.411C66.4679 41.0687 64.2196 42 61.8753 42H28.1253C26.9645 42 25.8151 41.7713 24.7426 41.3271C23.6702 40.8829 22.6958 40.2318 21.875 39.411C20.2173 37.7533 19.286 35.505 19.286 33.1607V15.4821C19.286 13.1378 20.2173 10.8895 21.875 9.23181C23.5326 7.57412 25.781 6.64284 28.1253 6.64284H42.5896V4.23213C42.5896 3.59276 42.8435 2.97959 43.2956 2.52749C43.7477 2.0754 44.3609 1.82141 45.0003 1.82141ZM21.6967 48.4286C19.3524 48.4286 17.1041 49.3598 15.4464 51.0175C13.7887 52.6752 12.8574 54.9235 12.8574 57.2678V59.6786C12.8574 66.0332 15.9464 71.385 21.5906 75.0428C27.1417 78.6332 35.0906 80.5714 45.0003 80.5714C54.9099 80.5714 62.8589 78.6364 68.4099 75.0428C74.0542 71.3818 77.1431 66.03 77.1431 59.6786V57.2678C77.1431 54.9235 76.2119 52.6752 74.5542 51.0175C72.8965 49.3598 70.6482 48.4286 68.3038 48.4286H21.6967ZM35.3574 29.1428C36.6361 29.1428 37.8625 28.6349 38.7667 27.7307C39.6709 26.8265 40.1789 25.6001 40.1789 24.3214C40.1789 23.0427 39.6709 21.8163 38.7667 20.9121C37.8625 20.008 36.6361 19.5 35.3574 19.5C34.0787 19.5 32.8523 20.008 31.9482 20.9121C31.044 21.8163 30.536 23.0427 30.536 24.3214C30.536 25.6001 31.044 26.8265 31.9482 27.7307C32.8523 28.6349 34.0787 29.1428 35.3574 29.1428ZM59.4646 24.3214C59.4646 23.0427 58.9566 21.8163 58.0524 20.9121C57.1482 20.008 55.9219 19.5 54.6431 19.5C53.3644 19.5 52.1381 20.008 51.2339 20.9121C50.3297 21.8163 49.8217 23.0427 49.8217 24.3214C49.8217 25.6001 50.3297 26.8265 51.2339 27.7307C52.1381 28.6349 53.3644 29.1428 54.6431 29.1428C55.9219 29.1428 57.1482 28.6349 58.0524 27.7307C58.9566 26.8265 59.4646 25.6001 59.4646 24.3214Z" fill="#08106C"/>
</svg>
