<svg width="94" height="98" viewBox="0 0 94 98" fill="none" xmlns="http://www.w3.org/2000/svg">
<path d="M0 77.577V85.75C0 92.5066 15.7891 98 35.25 98C54.7109 98 70.5 92.5066 70.5 85.75V77.577C62.9176 83.1469 49.0562 85.75 35.25 85.75C21.4438 85.75 7.58242 83.1469 0 77.577ZM58.75 24.5C78.2109 24.5 94 19.0066 94 12.25C94 5.49336 78.2109 0 58.75 0C39.2891 0 23.5 5.49336 23.5 12.25C23.5 19.0066 39.2891 24.5 58.75 24.5ZM0 57.4984V67.375C0 74.1316 15.7891 79.625 35.25 79.625C54.7109 79.625 70.5 74.1316 70.5 67.375V57.4984C62.9176 64.0062 49.0379 67.375 35.25 67.375C21.4621 67.375 7.58242 64.0062 0 57.4984ZM76.375 59.6039C86.8949 57.4793 94 53.5363 94 49V40.827C89.7406 43.966 83.4801 46.1098 76.375 47.4305V59.6039ZM35.25 30.625C15.7891 30.625 0 37.4773 0 45.9375C0 54.3977 15.7891 61.25 35.25 61.25C54.7109 61.25 70.5 54.3977 70.5 45.9375C70.5 37.4773 54.7109 30.625 35.25 30.625ZM75.5121 41.4012C86.5277 39.334 94 35.2762 94 30.625V22.452C87.4824 27.2563 76.2832 29.8402 64.4965 30.4527C69.9125 33.1898 73.8965 36.8648 75.5121 41.4012Z" fill="#08106C"/>
</svg>
