<svg width="68" height="67" viewBox="0 0 68 67" fill="none" xmlns="http://www.w3.org/2000/svg">
<rect width="68" height="67" rx="30" fill="white"/>
<path d="M63.7499 33.4713C63.7518 34.2173 63.5514 34.9504 63.1694 35.5946C62.7874 36.2387 62.2377 36.7707 61.5771 37.1353L16.9733 62.2629C16.3332 62.6204 15.6106 62.8097 14.8749 62.8125C14.197 62.809 13.5298 62.6456 12.929 62.3362C12.3282 62.0268 11.8112 61.5803 11.4213 61.0339C11.0313 60.4875 10.7797 59.8572 10.6873 59.1955C10.595 58.5338 10.6647 57.8599 10.8905 57.2301L18.0624 36.3057C18.1325 36.1011 18.265 35.9229 18.4419 35.7954C18.6188 35.668 18.8314 35.5976 19.0505 35.5938H38.2499C38.5412 35.5944 38.8295 35.536 39.097 35.4222C39.3644 35.3085 39.6052 35.1417 39.8045 34.9324C40.0038 34.723 40.1573 34.4755 40.2554 34.2052C40.3535 33.935 40.3942 33.6477 40.3749 33.3613C40.3267 32.8229 40.0738 32.3224 39.667 31.9598C39.2601 31.5973 38.7293 31.3996 38.1808 31.4063H19.0558C18.8335 31.4063 18.6168 31.3376 18.4362 31.2099C18.2556 31.0822 18.1202 30.9019 18.0491 30.6944L10.8772 9.77263C10.5918 8.9707 10.5607 8.10218 10.7881 7.28245C11.0156 6.46271 11.4908 5.73056 12.1506 5.18326C12.8104 4.63596 13.6236 4.29941 14.4822 4.21833C15.3408 4.13724 16.204 4.31546 16.9574 4.72931L61.5824 29.8255C62.2392 30.1893 62.7861 30.7187 63.167 31.3593C63.5479 31.9999 63.749 32.7288 63.7499 33.4713Z" fill="#08106C"/>
</svg>
