<svg width="60" height="52" viewBox="0 0 60 52" fill="none" xmlns="http://www.w3.org/2000/svg">
<path fill-rule="evenodd" clip-rule="evenodd" d="M49.5 21.9795C48.7251 15.1136 44.025 4.31812 29.5001 4.31812C14.9751 4.31812 10.275 15.1136 9.50006 21.9795C6.78131 22.8706 4.98799 25.1249 5.00006 27.6363V30.6591C5.00006 33.9979 8.13412 36.7045 12 36.7045C15.866 36.7045 19.0001 33.9978 19.0001 30.6591V27.6363C18.9874 25.1791 17.2601 22.9711 14.625 22.0443C15.1251 18.0715 17.5751 8.63633 29.5001 8.63633C41.4251 8.63633 43.8501 18.0715 44.3501 22.0443C41.7204 22.9732 40.0017 25.1826 40.0001 27.6363V30.6591C40.0055 31.7966 40.381 32.9099 41.0839 33.872C41.7867 34.834 42.7886 35.6061 43.9751 36.1C42.9251 37.8056 40.2501 40.1159 33.675 40.8067C32.3608 39.0832 29.8179 38.4037 27.6061 39.1851C25.3944 39.9664 24.132 41.9902 24.5932 44.0152C25.0545 46.0402 27.1104 47.5 29.5001 47.5C30.426 47.4955 31.3324 47.2691 32.1181 46.8459C32.9038 46.4228 33.538 45.8195 33.9501 45.1034C44.6751 44.0454 48.1001 39.2738 49.1751 36.4669C52.0833 35.6533 54.0393 33.2991 54 30.6591V27.6363C54.0121 25.1249 52.2188 22.8706 49.5 21.9795ZM14.0001 30.6591C14.0001 31.6129 13.1046 32.3863 12 32.3863C10.8954 32.3863 10.0001 31.613 10.0001 30.6591V27.6363C9.99808 27.4084 10.0483 27.1823 10.1479 26.9712C10.2475 26.7601 10.3945 26.5682 10.5804 26.4064C10.7664 26.2446 10.9875 26.1162 11.2312 26.0285C11.4748 25.9409 11.7361 25.8958 12.0001 25.8958C12.264 25.8958 12.5253 25.9409 12.769 26.0285C13.0126 26.1162 13.2338 26.2446 13.4197 26.4064C13.6056 26.5682 13.7526 26.7601 13.8522 26.9712C13.9518 27.1823 14.0021 27.4084 14.0001 27.6363V30.6591ZM45 27.6363C45 26.6823 45.8955 25.909 47.0001 25.909C48.1047 25.909 49.0001 26.6823 49.0001 27.6363V30.6591C49.0001 31.6129 48.1047 32.3863 47.0001 32.3863C45.8955 32.3863 45 31.613 45 30.6591V27.6363Z" fill="white"/>
</svg>
