<svg width="92" height="92" viewBox="0 0 92 92" fill="none" xmlns="http://www.w3.org/2000/svg">
<path fill-rule="evenodd" clip-rule="evenodd" d="M22.9998 9.19995C20.5598 9.19995 18.2198 10.1692 16.4944 11.8946C14.7691 13.6199 13.7998 15.96 13.7998 18.4V82.7999L29.8998 73.6L45.9998 82.7999L62.0998 73.6L78.1998 82.7999V18.4C78.1998 15.96 77.2305 13.6199 75.5052 11.8946C73.7799 10.1692 71.4398 9.19995 68.9998 9.19995H22.9998ZM34.4998 23C32.6698 23 30.9148 23.7269 29.6208 25.0209C28.3268 26.3149 27.5998 28.07 27.5998 29.9C27.5998 31.7299 28.3268 33.485 29.6208 34.779C30.9148 36.073 32.6698 36.7999 34.4998 36.7999C36.3298 36.7999 38.0848 36.073 39.3788 34.779C40.6728 33.485 41.3998 31.7299 41.3998 29.9C41.3998 28.07 40.6728 26.3149 39.3788 25.0209C38.0848 23.7269 36.3298 23 34.4998 23ZM63.052 24.3478C62.1894 23.4854 61.0196 23.0009 59.7998 23.0009C58.58 23.0009 57.4102 23.4854 56.5476 24.3478L28.9476 51.9478C28.5083 52.3721 28.1578 52.8797 27.9167 53.4409C27.6757 54.0021 27.5488 54.6057 27.5435 55.2165C27.5381 55.8273 27.6545 56.433 27.8858 56.9983C28.1171 57.5637 28.4587 58.0773 28.8906 58.5092C29.3225 58.9411 29.8361 59.2826 30.4014 59.5139C30.9667 59.7452 31.5725 59.8616 32.1833 59.8563C32.794 59.851 33.3976 59.7241 33.9589 59.483C34.5201 59.2419 35.0277 58.8915 35.452 58.4521L63.052 30.8521C63.9144 29.9895 64.3988 28.8197 64.3988 27.6C64.3988 26.3802 63.9144 25.2104 63.052 24.3478ZM57.4998 46C55.6698 46 53.9148 46.7269 52.6208 48.0209C51.3268 49.3149 50.5998 51.07 50.5998 52.9C50.5998 54.7299 51.3268 56.485 52.6208 57.779C53.9148 59.073 55.6698 59.7999 57.4998 59.7999C59.3298 59.7999 61.0848 59.073 62.3788 57.779C63.6728 56.485 64.3998 54.7299 64.3998 52.9C64.3998 51.07 63.6728 49.3149 62.3788 48.0209C61.0848 46.7269 59.3298 46 57.4998 46Z" fill="#08106C"/>
</svg>
