<svg width="40" height="40" viewBox="0 0 40 40" fill="none" xmlns="http://www.w3.org/2000/svg">
<path d="M32.5 20.7325V17.5H30V21.25C30.0001 21.5815 30.1318 21.8994 30.3662 22.1338L33.75 25.5175V27.5H6.25V25.5175L9.63375 22.1338C9.86819 21.8994 9.99993 21.5815 10 21.25V16.25C9.99674 14.4936 10.457 12.7674 11.3343 11.2458C12.2117 9.72424 13.475 8.46108 14.9967 7.58395C16.5184 6.70681 18.2446 6.24675 20.001 6.25023C21.7574 6.2537 23.4818 6.7206 25 7.60375V4.8075C23.8101 4.28073 22.5445 3.94494 21.25 3.8125V1.25H18.75V3.8125C15.6682 4.12617 12.8122 5.57139 10.7342 7.86873C8.65622 10.1661 7.50388 13.1523 7.5 16.25V20.7325L4.11625 24.1162C3.88181 24.3506 3.75007 24.6685 3.75 25V28.75C3.75 29.0815 3.8817 29.3995 4.11612 29.6339C4.35054 29.8683 4.66848 30 5 30H13.75V31.25C13.75 32.9076 14.4085 34.4973 15.5806 35.6694C16.7527 36.8415 18.3424 37.5 20 37.5C21.6576 37.5 23.2473 36.8415 24.4194 35.6694C25.5915 34.4973 26.25 32.9076 26.25 31.25V30H35C35.3315 30 35.6495 29.8683 35.8839 29.6339C36.1183 29.3995 36.25 29.0815 36.25 28.75V25C36.2499 24.6685 36.1182 24.3506 35.8838 24.1162L32.5 20.7325ZM23.75 31.25C23.75 32.2446 23.3549 33.1984 22.6517 33.9016C21.9484 34.6049 20.9946 35 20 35C19.0054 35 18.0516 34.6049 17.3483 33.9016C16.6451 33.1984 16.25 32.2446 16.25 31.25V30H23.75V31.25Z" fill="black"/>
<path d="M32.5 15C35.2614 15 37.5 12.7614 37.5 10C37.5 7.23858 35.2614 5 32.5 5C29.7386 5 27.5 7.23858 27.5 10C27.5 12.7614 29.7386 15 32.5 15Z" fill="black"/>
</svg>
