<svg width="40" height="40" viewBox="0 0 40 40" fill="none" xmlns="http://www.w3.org/2000/svg">
<path d="M35.0001 35L27.7618 27.7616M27.7618 27.7616C28.9999 26.5235 29.9821 25.0536 30.6521 23.4359C31.3222 21.8182 31.6671 20.0843 31.6671 18.3333C31.6671 16.5823 31.3222 14.8484 30.6521 13.2307C29.9821 11.613 28.9999 10.1431 27.7618 8.90498C26.5236 7.66683 25.0537 6.68468 23.436 6.0146C21.8183 5.34452 20.0844 4.99963 18.3334 4.99963C16.5824 4.99963 14.8486 5.34452 13.2309 6.0146C11.6131 6.68468 10.1432 7.66683 8.9051 8.90498C6.40455 11.4055 4.99976 14.797 4.99976 18.3333C4.99976 21.8696 6.40455 25.2611 8.9051 27.7616C11.4056 30.2622 14.7971 31.667 18.3334 31.667C21.8697 31.667 25.2612 30.2622 27.7618 27.7616Z" stroke="black" stroke-width="1.66667" stroke-linecap="round" stroke-linejoin="round"/>
</svg>
